# xmcd
#
# Track frame offsets:
#	150
#	12070
#	25270
#	34796
#	45547
#	59000
#	82591
#	96844
#	108677
#	117696
#	133113
#	162148
#	176035
#	187512
#
# Disc length: 2770 seconds
#
# Revision: 1
# Processed by: cddbd v1.5.2PL0 Copyright (c) Steve Scherf et al.
# Submitted via: audiograbber 1.83.01
#
DISCID=af0ad00e
DTITLE=Willie Nelson - Live On Air
DYEAR=2005
DGENRE=Country
TTITLE0=Whiskey River
TTITLE1=Blue Eyes Crying In The Rain
TTITLE2=Someting To Brag About
TTITLE3=On The Road Again
TTITLE4=Old Friends w/Roger Miller
TTITLE5=City Of New Orleans w/Arlo Guthrie
TTITLE6=Good Hearted Woman
TTITLE7=You Were Always On My Mind
TTITLE8=Luckenbach Texas
TTITLE9=Wiskey River 
TTITLE10=What Was It You Wanted
TTITLE11=I'll be Your Baby Tonight w/Kris Kristofferson
TTITLE12=Heartland w/Bob Dylan
TTITLE13=Pancho And Lefty w/Bob Dylan
EXTD=
EXTT0=
EXTT1=
EXTT2=
EXTT3=
EXTT4=
EXTT5=
EXTT6=
EXTT7=
EXTT8=
EXTT9=
EXTT10=
EXTT11=
EXTT12=
EXTT13=
PLAYORDER=
